HIERARCHY
ROOT Hips
{
	OFFSET 0.00000 0.00000 0.00000
	CHANNELS 6 Xposition Yposition Zposition Zrotation Yrotation Xrotation 
	JOINT LHipJoint
	{
		OFFSET 0 0 0
		CHANNELS 3 Zrotation Yrotation Xrotation
		JOINT LeftUpLeg
		{
			OFFSET 1.84395 -1.68683 0.74144
			CHANNELS 3 Zrotation Yrotation Xrotation
			JOINT LeftLeg
			{
				OFFSET 2.27037 -6.23779 0.00000
				CHANNELS 3 Zrotation Yrotation Xrotation
				JOINT LeftFoot
				{
					OFFSET 2.56918 -7.05877 0.00000
					CHANNELS 3 Zrotation Yrotation Xrotation
					JOINT LeftToeBase
					{
						OFFSET 0.22276 -0.61202 1.71784
						CHANNELS 3 Zrotation Yrotation Xrotation
						End Site
						{
							OFFSET 0.00000 -0.00000 0.91613
						}
					}
				}
			}
		}
	}
	JOINT RHipJoint
	{
		OFFSET 0 0 0
		CHANNELS 3 Zrotation Yrotation Xrotation
		JOINT RightUpLeg
		{
			OFFSET -1.76833 -1.68684 0.74144
			CHANNELS 3 Zrotation Yrotation Xrotation
			JOINT RightLeg
			{
				OFFSET -2.49360 -6.85110 0.00000
				CHANNELS 3 Zrotation Yrotation Xrotation
				JOINT RightFoot
				{
					OFFSET -2.55538 -7.02085 0.00000
					CHANNELS 3 Zrotation Yrotation Xrotation
					JOINT RightToeBase
					{
						OFFSET -0.21516 -0.59115 1.68050
						CHANNELS 3 Zrotation Yrotation Xrotation
						End Site
						{
							OFFSET -0.00000 -0.00000 0.89604
						}
					}
				}
			}
		}
	}
	JOINT LowerBack
	{
		OFFSET 0 0 0
		CHANNELS 3 Zrotation Yrotation Xrotation
		JOINT Spine
		{
			OFFSET 0.06382 1.72312 -0.19613
			CHANNELS 3 Zrotation Yrotation Xrotation
			JOINT Spine1
			{
				OFFSET -0.00055 1.73507 0.23859
				CHANNELS 3 Zrotation Yrotation Xrotation
				JOINT Neck
				{
					OFFSET 0 0 0
					CHANNELS 3 Zrotation Yrotation Xrotation
					JOINT Neck1
					{
						OFFSET 0.03638 1.65562 0.09633
						CHANNELS 3 Zrotation Yrotation Xrotation
						JOINT Head
						{
							OFFSET 0.06388 1.62807 -0.32386
							CHANNELS 3 Zrotation Yrotation Xrotation
							End Site
							{
								OFFSET 0.00995 1.67644 -0.12021
							}
						}
					}
				}
				JOINT LeftShoulder
				{
					OFFSET 0 0 0
					CHANNELS 3 Zrotation Yrotation Xrotation
					JOINT LeftArm
					{
						OFFSET 3.09648 1.42991 0.28122
						CHANNELS 3 Zrotation Yrotation Xrotation
						JOINT LeftForeArm
						{
							OFFSET 5.11878 -0.00000 -0.00000
							CHANNELS 3 Zrotation Yrotation Xrotation
							JOINT LeftHand
							{
								OFFSET 3.59971 -0.00000 0.00000
								CHANNELS 3 Zrotation Yrotation Xrotation
								JOINT LeftFingerBase
								{
									OFFSET 0 0 0
									CHANNELS 3 Zrotation Yrotation Xrotation
									JOINT LeftHandIndex1
									{
										OFFSET 0.62877 -0.00000 0.00000
										CHANNELS 3 Zrotation Yrotation Xrotation
										End Site
										{
											OFFSET 0.50693 -0.00000 0.00000
										}
									}
								}
								JOINT LThumb
								{
									OFFSET 0 0 0
									CHANNELS 3 Zrotation Yrotation Xrotation
									End Site
									{
										OFFSET 0.51467 -0.00000 0.51467
									}
								}
							}
						}
					}
				}
				JOINT RightShoulder
				{
					OFFSET 0 0 0
					CHANNELS 3 Zrotation Yrotation Xrotation
					JOINT RightArm
					{
						OFFSET -3.33565 1.14597 0.05047
						CHANNELS 3 Zrotation Yrotation Xrotation
						JOINT RightForeArm
						{
							OFFSET -5.49020 -0.00000 0.00000
							CHANNELS 3 Zrotation Yrotation Xrotation
							JOINT RightHand
							{
								OFFSET -3.20659 -0.00000 -0.00000
								CHANNELS 3 Zrotation Yrotation Xrotation
								JOINT RightFingerBase
								{
									OFFSET 0 0 0
									CHANNELS 3 Zrotation Yrotation Xrotation
									JOINT RightHandIndex1
									{
										OFFSET -0.69188 -0.00000 0.00000
										CHANNELS 3 Zrotation Yrotation Xrotation
										End Site
										{
											OFFSET -0.55781 -0.00000 0.00000
										}
									}
								}
								JOINT RThumb
								{
									OFFSET 0 0 0
									CHANNELS 3 Zrotation Yrotation Xrotation
									End Site
									{
										OFFSET -0.56633 -0.00000 0.56633
									}
								}
							}
						}
					}
				}
			}
		}
	}
}
MOTION
Frames: 7
Frame Time: .0083333
0.5708 17.6183 9.5433 -10.0922 -2.6241 17.3611 0.0000 0.0000 0.0000 -17.7065 -52.3776 24.5508 0.0599 -1.5794 -4.3445 2.5570 43.8632 -64.8258 2.2200 9.3100 26.7700 0.0000 0.0000 0.0000 26.0123 30.8937 -0.0950 -0.0016 -0.2586 0.7105 1.4716 -23.3499 -20.2409 -0.1580 -2.5610 7.0589 9.2993 3.8207 5.3477 -0.9565 5.9779 -5.9068 -6.9147 2.3203 -8.2760 -5.7453 -8.1590 -17.3238 13.0663 -11.9052 12.0092 3.7608 -4.8297 7.7285 0.0000 -0.0000 0.0000 -99.6202 -41.6294 67.2518 32.4791 -42.9258 -13.0660 -0.0000 0.0000 -20.8391 34.9248 -13.5277 -9.2763 -7.1250 0.0000 -0.0000 5.0939 13.6731 -3.7606 0.0000 -0.0000 0.0000 25.8736 67.6160 31.4013 -24.6846 35.8798 -8.1043 0.0000 0.0000 8.8639 43.2418 -39.6977 -30.9929 7.1250 -0.0000 -0.0000 78.9788 -53.6681 -30.7788
0.5706 17.6183 9.5420 -10.1234 -2.6981 17.3566 0.0000 0.0000 0.0000 -17.9641 -52.5835 24.9308 0.0600 -1.5805 -4.3477 2.7515 43.9746 -65.2886 2.2304 9.3303 26.8341 0.0000 0.0000 0.0000 26.0557 30.9904 -0.0443 -0.0016 -0.2548 0.7000 1.4722 -23.3701 -20.2890 -0.1596 -2.5742 7.0956 9.3253 3.8212 5.3841 -0.9672 5.9847 -5.9172 -6.9454 2.3193 -8.3045 -5.7489 -8.1399 -17.3992 13.1022 -11.8962 12.1153 3.7724 -4.8151 7.7785 0.0000 0.0000 0.0000 -99.5272 -41.6363 67.2552 32.4873 -42.9323 -13.0716 -0.0000 0.0000 -20.9357 34.9937 -13.4844 -9.2710 -7.1250 0.0000 -0.0000 5.1459 13.7122 -3.7951 0.0000 0.0000 0.0000 26.4610 67.7480 31.9538 -24.6182 35.8112 -8.0654 0.0000 0.0000 8.7314 42.5791 -40.3872 -30.7689 7.1250 -0.0000 -0.0000 79.4658 -54.0959 -32.1897
0.5717 17.6183 9.5402 -10.1428 -2.7299 17.3518 0.0000 0.0000 0.0000 -18.1098 -52.7204 25.1396 0.0594 -1.5731 -4.3274 3.0015 43.8793 -65.6463 2.2762 9.4191 27.1153 0.0000 0.0000 0.0000 26.0698 31.0475 -0.0197 -0.0015 -0.2530 0.6952 1.4610 -23.3461 -20.3764 -0.1706 -2.6608 7.3358 9.3604 3.8121 5.4086 -0.9833 5.9768 -5.9099 -6.9835 2.3125 -8.3078 -5.7107 -8.1222 -17.5258 13.1013 -11.8933 12.2395 3.7630 -4.8015 7.8388 0.0000 -0.0000 0.0000 -99.4599 -41.6686 67.2541 32.4932 -42.9369 -13.0756 -0.0000 0.0000 -20.9070 35.0732 -13.4730 -9.2903 -7.1250 0.0000 -0.0000 5.2007 13.7119 -3.8358 0.0000 -0.0000 0.0000 26.7411 67.7949 32.4563 -24.6126 35.8054 -8.0622 0.0000 0.0000 9.9851 40.1987 -40.0830 -28.5510 7.1250 -0.0000 -0.0000 77.4872 -54.4762 -31.2143
0.5722 17.6181 9.5381 -10.1209 -2.7489 17.3487 0.0000 0.0000 0.0000 -18.1741 -52.7723 25.1842 0.0589 -1.5666 -4.3095 3.1376 43.7673 -65.7841 2.3062 9.4767 27.2982 0.0000 0.0000 0.0000 26.0234 31.0041 -0.0631 -0.0016 -0.2593 0.7125 1.4502 -23.2815 -20.3464 -0.1723 -2.6739 7.3723 9.3279 3.8051 5.4254 -1.0010 5.9643 -5.9007 -6.9845 2.3079 -8.3106 -5.6739 -8.0997 -17.6252 13.0902 -11.8802 12.3463 3.7527 -4.7860 7.8869 -0.0000 0.0000 0.0000 -99.4292 -41.7008 67.2750 32.4858 -42.9310 -13.0705 -0.0000 0.0000 -20.8124 35.0928 -13.4191 -9.2611 -7.1250 0.0000 -0.0000 5.2212 13.7724 -3.8444 -0.0000 0.0000 0.0000 26.5699 67.6119 32.8893 -24.7500 35.9473 -8.1427 0.0000 0.0000 12.8067 36.7089 -38.5869 -24.9405 7.1250 -0.0000 -0.0000 73.1877 -54.5321 -27.7355
0.5705 17.6181 9.5363 -10.1161 -2.8118 17.3433 0.0000 0.0000 0.0000 -18.2162 -52.7593 25.2304 0.0593 -1.5717 -4.3234 3.1465 43.8088 -65.8389 2.2991 9.4632 27.2553 0.0000 0.0000 0.0000 26.0091 30.9728 -0.0976 -0.0016 -0.2619 0.7196 1.4555 -23.2539 -20.1983 -0.1600 -2.5771 7.1035 9.2417 3.8219 5.4503 -0.9945 5.9814 -5.8971 -6.9332 2.3211 -8.3256 -5.6988 -8.0760 -17.6675 13.1258 -11.8578 12.4313 3.7707 -4.7681 7.9243 0.0000 0.0000 0.0000 -99.4685 -41.7168 67.3089 32.4537 -42.9059 -13.0487 -0.0000 0.0000 -20.6709 34.9915 -13.3234 -9.1635 -7.1250 0.0000 -0.0000 5.1668 13.9037 -3.7896 0.0000 0.0000 0.0000 26.0809 67.2992 33.0859 -24.8816 36.0828 -8.2201 0.0000 0.0000 16.9821 32.8906 -35.6987 -20.6746 7.1250 -0.0000 -0.0000 66.9996 -53.8117 -21.9057
0.5695 17.6182 9.5357 -10.1359 -2.8428 17.3490 0.0000 0.0000 0.0000 -18.2835 -52.8230 25.3507 0.0595 -1.5739 -4.3294 3.2702 43.8017 -66.0524 2.3123 9.4883 27.3351 0.0000 0.0000 0.0000 26.0162 30.9092 -0.1424 -0.0016 -0.2594 0.7128 1.4520 -23.1920 -20.0748 -0.1490 -2.4873 6.8545 9.1889 3.8372 5.4375 -0.9700 5.9967 -5.8875 -6.8770 2.3341 -8.3114 -5.6735 -8.0582 -17.6776 13.0648 -11.8316 12.4633 3.7501 -4.7583 7.9278 -0.0000 0.0000 0.0000 -99.5556 -41.7179 67.3336 32.4436 -42.8980 -13.0418 -0.0000 0.0000 -20.5932 34.8992 -13.3052 -9.1206 -7.1250 0.0000 -0.0000 5.1075 13.9412 -3.7417 -0.0000 0.0000 0.0000 25.5135 67.0684 32.8766 -24.7904 35.9890 -8.1664 0.0000 0.0000 21.5923 29.4361 -31.3791 -16.3744 7.1250 -0.0000 -0.0000 59.8091 -51.8835 -14.4067
0.5697 17.6180 9.5365 -10.1271 -2.8128 17.3541 0.0000 0.0000 0.0000 -18.4144 -52.9610 25.5064 0.0588 -1.5650 -4.3049 3.4404 43.7425 -66.2992 2.3413 9.5434 27.5103 0.0000 0.0000 0.0000 25.9985 30.8517 -0.1532 -0.0015 -0.2526 0.6939 1.4383 -23.1342 -20.1061 -0.1527 -2.5177 6.9387 9.1378 3.8304 5.4059 -0.9393 5.9814 -5.8827 -6.8110 2.3319 -8.2976 -5.6417 -8.0572 -17.6855 12.9594 -11.8243 12.5150 3.7110 -4.7605 7.9356 0.0000 -0.0000 0.0000 -99.6362 -41.6628 67.3117 32.4775 -42.9245 -13.0648 -0.0000 0.0000 -20.5906 34.8963 -13.2921 -9.1109 -7.1250 0.0000 -0.0000 5.1073 13.9573 -3.7399 0.0000 -0.0000 0.0000 24.8111 66.9085 32.4784 -24.5302 35.7199 -8.0140 0.0000 0.0000 25.3500 26.6503 -26.2833 -12.5292 7.1250 -0.0000 -0.0000 53.0649 -48.9143 -6.9523
